<svg xmlns="http://www.w3.org/2000/svg" viewBox="0 0 28.89 36.38"><defs><style>.cls-1{isolation:isolate;}.cls-2{mix-blend-mode:multiply;}.cls-3{fill:none;stroke:#eee;stroke-linecap:round;stroke-linejoin:round;stroke-width:2px;}</style></defs><title>Корзина</title><g class="cls-1"><g id="Слой_2" data-name="Слой 2"><g id="Слой_1-2" data-name="Слой 1" class="cls-2"><rect class="cls-3" x="1.9" y="7.62" width="25.18" height="27.76" rx="2.42" ry="2.42"/><path class="cls-3" d="M27.06,7.62H1.84a.93.93,0,0,1-.84-1V5.56a.93.93,0,0,1,.84-1H27.06a.93.93,0,0,1,.83,1V6.62A.93.93,0,0,1,27.06,7.62Z"/><path class="cls-3" d="M8.31,4.56c.27-2,7.28-6.9,12.48,0"/><line class="cls-3" x1="8.31" y1="12.22" x2="8.31" y2="30.14"/><line class="cls-3" x1="14.49" y1="12.22" x2="14.49" y2="30.14"/><line class="cls-3" x1="20.79" y1="12.22" x2="20.79" y2="30.14"/></g></g></g></svg>